<svg width="26" height="11" viewBox="0 0 26 11" fill="none" xmlns="http://www.w3.org/2000/svg">
<path d="M0.730697 6.22425H23.5065L19.9407 9.75943C19.6558 10.042 19.6558 10.5056 19.9407 10.7881C20.2257 11.0706 20.686 11.0706 20.971 10.7881L25.7863 6.01417C25.8541 5.94715 25.9078 5.86754 25.9445 5.77991C25.9811 5.69227 26 5.59833 26 5.50345C26 5.40857 25.9811 5.31463 25.9445 5.22699C25.9078 5.13936 25.8541 5.05975 25.7863 4.99273L20.9783 0.211546C20.9107 0.144478 20.8304 0.091276 20.742 0.0549789C20.6536 0.0186817 20.5589 1.41336e-09 20.4632 0C20.3675 -1.41336e-09 20.2728 0.0186817 20.1844 0.0549789C20.096 0.091276 20.0157 0.144478 19.948 0.211546C19.8804 0.278614 19.8267 0.358236 19.7901 0.445865C19.7535 0.533494 19.7347 0.627415 19.7347 0.722264C19.7347 0.817113 19.7535 0.911033 19.7901 0.998662C19.8267 1.08629 19.8804 1.16591 19.948 1.23298L23.5065 4.7754H0.730697C0.328814 4.7754 0 5.10139 0 5.49983C0 5.89826 0.328814 6.22425 0.730697 6.22425Z" fill="#FCD163"/>
</svg>
