<svg width="14" height="12" viewBox="0 0 14 12" fill="none" xmlns="http://www.w3.org/2000/svg">
<path d="M10.3636 0H2.72727C2.00422 0.000866104 1.31103 0.288481 0.799756 0.799756C0.288481 1.31103 0.000866104 2.00422 0 2.72727L0 9.27273C0.000866104 9.99578 0.288481 10.689 0.799756 11.2002C1.31103 11.7115 2.00422 11.9991 2.72727 12H10.3636C11.0867 11.9991 11.7799 11.7115 12.2912 11.2002C12.8024 10.689 13.09 9.99578 13.0909 9.27273V2.72727C13.09 2.00422 12.8024 1.31103 12.2912 0.799756C11.7799 0.288481 11.0867 0.000866104 10.3636 0ZM2.72727 1.09091H10.3636C10.6902 1.09155 11.0092 1.18992 11.2794 1.37335C11.5497 1.55678 11.7588 1.81688 11.88 2.12018L7.70291 6.29782C7.39551 6.60399 6.97932 6.77589 6.54545 6.77589C6.11159 6.77589 5.6954 6.60399 5.388 6.29782L1.21091 2.12018C1.33208 1.81688 1.54124 1.55678 1.81148 1.37335C2.08172 1.18992 2.40066 1.09155 2.72727 1.09091ZM10.3636 10.9091H2.72727C2.29328 10.9091 1.87707 10.7367 1.57019 10.4298C1.26331 10.1229 1.09091 9.70672 1.09091 9.27273V3.54545L4.61673 7.06909C5.12871 7.57978 5.82232 7.86657 6.54545 7.86657C7.26859 7.86657 7.9622 7.57978 8.47418 7.06909L12 3.54545V9.27273C12 9.70672 11.8276 10.1229 11.5207 10.4298C11.2138 10.7367 10.7976 10.9091 10.3636 10.9091Z" fill="#30505A"/>
</svg>
