<svg width="27" height="38" viewBox="0 0 27 38" fill="none" xmlns="http://www.w3.org/2000/svg">
<path d="M12.1126 37.1835C1.89633 21.9615 0 20.3993 0 14.805C0 7.14202 6.04413 0.929993 13.5 0.929993C20.9559 0.929993 27 7.14202 27 14.805C27 20.3993 25.1037 21.9615 14.8874 37.1835C14.217 38.1789 12.783 38.1788 12.1126 37.1835ZM13.5 20.5862C16.6066 20.5862 19.125 17.9979 19.125 14.805C19.125 11.6121 16.6066 9.02374 13.5 9.02374C10.3934 9.02374 7.875 11.6121 7.875 14.805C7.875 17.9979 10.3934 20.5862 13.5 20.5862Z" fill="white"/>
</svg>
