<svg width="11" height="12" viewBox="0 0 11 12" fill="none" xmlns="http://www.w3.org/2000/svg">
<path d="M5.02707 3.00074C4.63154 3.00074 4.24489 3.11802 3.91602 3.33777C3.58715 3.55751 3.33083 3.86984 3.17947 4.23526C3.0281 4.60068 2.9885 5.00278 3.06567 5.39071C3.14283 5.77864 3.33329 6.13497 3.61298 6.41466C3.89266 6.69434 4.24899 6.8848 4.63692 6.96197C5.02485 7.03913 5.42695 6.99953 5.79237 6.84816C6.15779 6.6968 6.47012 6.44048 6.68986 6.11161C6.90961 5.78274 7.02689 5.39609 7.02689 5.00056C7.02689 4.47018 6.8162 3.96151 6.44116 3.58647C6.06612 3.21143 5.55745 3.00074 5.02707 3.00074ZM5.02707 6.00048C4.8293 6.00048 4.63598 5.94183 4.47154 5.83196C4.30711 5.72209 4.17895 5.56592 4.10327 5.38321C4.02759 5.2005 4.00778 4.99945 4.04637 4.80549C4.08495 4.61153 4.18018 4.43336 4.32002 4.29352C4.45986 4.15368 4.63803 4.05845 4.83199 4.01986C5.02596 3.98128 5.22701 4.00108 5.40972 4.07676C5.59243 4.15245 5.74859 4.28061 5.85847 4.44504C5.96834 4.60948 6.02698 4.8028 6.02698 5.00056C6.02698 5.26576 5.92163 5.52009 5.73411 5.70761C5.54659 5.89513 5.29226 6.00048 5.02707 6.00048Z" fill="#30505A"/>
<path d="M5.02707 12C4.60608 12.0021 4.19069 11.9034 3.8157 11.712C3.44071 11.5206 3.11703 11.2422 2.87175 10.9001C0.966417 8.27179 0 6.29596 0 5.02707C0 3.69381 0.529636 2.41515 1.47239 1.47239C2.41515 0.529636 3.69381 0 5.02707 0C6.36033 0 7.63898 0.529636 8.58174 1.47239C9.5245 2.41515 10.0541 3.69381 10.0541 5.02707C10.0541 6.29596 9.08772 8.27179 7.18238 10.9001C6.9371 11.2422 6.61342 11.5206 6.23843 11.712C5.86344 11.9034 5.44806 12.0021 5.02707 12ZM5.02707 1.09141C3.98337 1.0926 2.98275 1.50773 2.24474 2.24574C1.50673 2.98375 1.0916 3.98436 1.09041 5.02807C1.09041 6.03298 2.03682 7.89132 3.75468 10.2606C3.90051 10.4615 4.09183 10.625 4.31298 10.7377C4.53414 10.8504 4.77884 10.9092 5.02707 10.9092C5.27529 10.9092 5.52 10.8504 5.74115 10.7377C5.9623 10.625 6.15362 10.4615 6.29946 10.2606C8.01731 7.89132 8.96373 6.03298 8.96373 5.02807C8.96254 3.98436 8.5474 2.98375 7.80939 2.24574C7.07138 1.50773 6.07077 1.0926 5.02707 1.09141Z" fill="#30505A"/>
</svg>
