<svg width="18" height="15" viewBox="0 0 18 15" fill="none" xmlns="http://www.w3.org/2000/svg">
<path d="M18 4.70309V12.6785C18 13.1205 17.8426 13.4988 17.5279 13.8136C17.2132 14.1283 16.8348 14.2857 16.3929 14.2857H1.60714C1.16518 14.2857 0.78683 14.1283 0.472098 13.8136C0.157366 13.4988 0 13.1205 0 12.6785V4.70309C0.294643 5.03121 0.632813 5.32251 1.01451 5.57697C3.43862 7.2243 5.10268 8.37943 6.0067 9.04238C6.38839 9.32363 6.69643 9.54461 6.9308 9.70532C7.17188 9.85934 7.48996 10.0201 7.88505 10.1875C8.28013 10.3482 8.64844 10.4285 8.98996 10.4285H9.01005C9.35156 10.4285 9.71987 10.3482 10.115 10.1875C10.51 10.0201 10.8248 9.85934 11.0592 9.70532C11.3002 9.54461 11.6116 9.32363 11.9933 9.04238C13.1317 8.21871 14.7991 7.06358 16.9955 5.57697C17.3772 5.31581 17.7121 5.02452 18 4.70309ZM18 1.74997C18 2.27898 17.8359 2.78456 17.5078 3.26671C17.1797 3.74885 16.7712 4.16068 16.2824 4.5022C13.7645 6.24997 12.1975 7.33813 11.5815 7.76671C11.5145 7.81358 11.3705 7.91738 11.1496 8.07809C10.9353 8.23211 10.7545 8.35934 10.6071 8.45979C10.4665 8.55354 10.2924 8.66068 10.0848 8.78121C9.88393 8.90175 9.69308 8.99215 9.51228 9.05242C9.33147 9.11269 9.16406 9.14282 9.01005 9.14282H8.98996C8.83594 9.14282 8.66853 9.11269 8.48772 9.05242C8.30692 8.99215 8.11272 8.90175 7.90513 8.78121C7.70424 8.66068 7.53013 8.55354 7.38281 8.45979C7.24219 8.35934 7.06138 8.23211 6.8404 8.07809C6.62612 7.91738 6.48549 7.81358 6.41853 7.76671C5.80915 7.33813 4.93192 6.72876 3.78683 5.93858C2.64174 5.14171 1.95536 4.66291 1.72768 4.5022C1.3125 4.22095 0.920759 3.8359 0.552455 3.34706C0.184152 2.85153 0 2.39282 0 1.97095C0 1.44863 0.137277 1.01336 0.41183 0.665144C0.69308 0.316929 1.09152 0.142822 1.60714 0.142822H16.3929C16.8281 0.142822 17.2031 0.300188 17.5179 0.61492C17.8393 0.929653 18 1.308 18 1.74997Z" fill="#E47123"/>
</svg>
