<svg width="12" height="12" viewBox="0 0 12 12" fill="none" xmlns="http://www.w3.org/2000/svg">
<path d="M6.49112 0.501622C6.49112 0.368796 6.54389 0.24141 6.63781 0.147487C6.73173 0.0535649 6.85912 0.000799798 6.99195 0.000799798C8.31976 0.00225799 9.59278 0.530377 10.5317 1.46929C11.4706 2.40819 11.9987 3.68121 12.0002 5.00903C12.0002 5.14185 11.9474 5.26924 11.8535 5.36316C11.7596 5.45708 11.6322 5.50985 11.4994 5.50985C11.3665 5.50985 11.2391 5.45708 11.1452 5.36316C11.0513 5.26924 10.9985 5.14185 10.9985 5.00903C10.9973 3.94678 10.5748 2.92838 9.82371 2.17726C9.07259 1.42614 8.05419 1.00364 6.99195 1.00245C6.85912 1.00245 6.73173 0.94968 6.63781 0.855758C6.54389 0.761835 6.49112 0.634449 6.49112 0.501622ZM6.99195 3.00574C7.52325 3.00574 8.0328 3.2168 8.40849 3.59249C8.78418 3.96818 8.99524 4.47772 8.99524 5.00903C8.99524 5.14185 9.048 5.26924 9.14192 5.36316C9.23585 5.45708 9.36323 5.50985 9.49606 5.50985C9.62889 5.50985 9.75627 5.45708 9.85019 5.36316C9.94412 5.26924 9.99688 5.14185 9.99688 5.00903C9.99609 4.21231 9.67924 3.44846 9.11588 2.88509C8.55252 2.32173 7.78866 2.00489 6.99195 2.00409C6.85912 2.00409 6.73173 2.05686 6.63781 2.15078C6.54389 2.2447 6.49112 2.37209 6.49112 2.50491C6.49112 2.63774 6.54389 2.76513 6.63781 2.85905C6.73173 2.95297 6.85912 3.00574 6.99195 3.00574ZM11.5459 8.38407C11.8362 8.67511 11.9991 9.06935 11.9991 9.48037C11.9991 9.89139 11.8362 10.2856 11.5459 10.5767L11.0902 11.102C6.98844 15.029 -2.99295 5.05009 0.873396 0.935335L1.44934 0.434512C1.74071 0.152387 2.13143 -0.00368303 2.53698 6.60132e-05C2.94253 0.00381505 3.3303 0.167082 3.6164 0.454545C3.63193 0.470071 4.55995 1.67555 4.55995 1.67555C4.83532 1.96484 4.98861 2.34912 4.98796 2.74851C4.9873 3.14791 4.83276 3.53169 4.55645 3.82007L3.97649 4.54927C4.29744 5.32911 4.76933 6.03784 5.36503 6.63474C5.96073 7.23165 6.66851 7.70496 7.4477 8.02748L8.1814 7.44403C8.46983 7.16793 8.85354 7.01357 9.25281 7.01301C9.65208 7.01245 10.0362 7.16573 10.3254 7.44102C10.3254 7.44102 11.5304 8.36854 11.5459 8.38407ZM10.8568 9.11227C10.8568 9.11227 9.65833 8.19025 9.6428 8.17473C9.53962 8.07242 9.40021 8.01502 9.25491 8.01502C9.10962 8.01502 8.9702 8.07242 8.86703 8.17473C8.8535 8.18875 7.84335 8.99357 7.84335 8.99357C7.77527 9.04776 7.69426 9.08327 7.60828 9.09662C7.52231 9.10997 7.43434 9.10069 7.35304 9.0697C6.34361 8.69386 5.42674 8.10548 4.66454 7.3444C3.90234 6.58332 3.3126 5.66732 2.93528 4.65845C2.90183 4.57604 2.89092 4.48621 2.90368 4.39819C2.91645 4.31017 2.95242 4.22714 3.0079 4.15763C3.0079 4.15763 3.81272 3.14697 3.82625 3.13395C3.92855 3.03077 3.98595 2.89136 3.98595 2.74606C3.98595 2.60076 3.92855 2.46135 3.82625 2.35817C3.81072 2.34315 2.88871 1.14368 2.88871 1.14368C2.78398 1.04978 2.64731 0.999488 2.5067 1.00312C2.36609 1.00675 2.2322 1.06403 2.13246 1.16321L1.55652 1.66403C-1.26912 5.06161 7.38058 13.2315 10.358 10.4179L10.8142 9.89205C10.9211 9.79301 10.9854 9.65629 10.9933 9.51077C11.0012 9.36525 10.9523 9.22235 10.8568 9.11227Z" fill="#30505A"/>
</svg>
