<svg width="15" height="12" viewBox="0 0 15 12" fill="none" xmlns="http://www.w3.org/2000/svg">
<path d="M7.14111 5.125C6.59424 5.70833 5.93262 6 5.15625 6C4.37988 6 3.71582 5.70833 3.16406 5.125C2.61719 4.53646 2.34375 3.82812 2.34375 3C2.34375 2.17188 2.61719 1.46615 3.16406 0.882812C3.71582 0.294271 4.37988 0 5.15625 0C5.93262 0 6.59424 0.294271 7.14111 0.882812C7.69287 1.46615 7.96875 2.17188 7.96875 3C7.96875 3.82812 7.69287 4.53646 7.14111 5.125ZM12.1875 7H14.7656C14.8291 7 14.8828 7.02604 14.9268 7.07812C14.9756 7.125 15 7.18229 15 7.25V8.75C15 8.81771 14.9756 8.8776 14.9268 8.92969C14.8828 8.97656 14.8291 9 14.7656 9H12.1875V11.75C12.1875 11.8177 12.1631 11.875 12.1143 11.9219C12.0703 11.974 12.0166 12 11.9531 12H10.5469C10.4834 12 10.4272 11.974 10.3784 11.9219C10.3345 11.875 10.3125 11.8177 10.3125 11.75V9H7.73438C7.6709 9 7.61475 8.97656 7.56592 8.92969C7.52197 8.8776 7.5 8.81771 7.5 8.75V7.25C7.5 7.18229 7.52197 7.125 7.56592 7.07812C7.61475 7.02604 7.6709 7 7.73438 7H10.3125V4.25C10.3125 4.18229 10.3345 4.125 10.3784 4.07812C10.4272 4.02604 10.4834 4 10.5469 4H11.9531C12.0166 4 12.0703 4.02604 12.1143 4.07812C12.1631 4.125 12.1875 4.18229 12.1875 4.25V7ZM6.79688 8.75C6.79688 9.02083 6.88965 9.25521 7.07519 9.45312C7.26074 9.65104 7.48047 9.75 7.73438 9.75H9.60938V11.6094C9.27734 11.8698 8.85986 12 8.35693 12H1.95557C1.36475 12 0.891113 11.8203 0.534668 11.4609C0.178223 11.1016 0 10.6068 0 9.97656C0 9.70052 0.00732422 9.43229 0.0219727 9.17188C0.0415039 8.90625 0.0756836 8.6224 0.124512 8.32031C0.178223 8.01302 0.244141 7.72917 0.322266 7.46875C0.400391 7.20833 0.505371 6.95573 0.637207 6.71094C0.769043 6.46094 0.92041 6.25 1.09131 6.07812C1.26221 5.90104 1.46973 5.76042 1.71387 5.65625C1.96289 5.55208 2.23633 5.5 2.53418 5.5C2.62695 5.5 2.72217 5.54427 2.81982 5.63281C3.20557 5.95052 3.58154 6.1901 3.94775 6.35156C4.31885 6.50781 4.72168 6.58594 5.15625 6.58594C5.59082 6.58594 5.99121 6.50781 6.35742 6.35156C6.72852 6.1901 7.10693 5.95052 7.49268 5.63281C7.59033 5.54427 7.68555 5.5 7.77832 5.5C8.42285 5.5 8.95264 5.75 9.36768 6.25H7.73438C7.48047 6.25 7.26074 6.34896 7.07519 6.54688C6.88965 6.74479 6.79688 6.97917 6.79688 7.25V8.75Z" fill="#627B9C"/>
</svg>
