<svg width="35" height="35" viewBox="0 0 35 35" fill="none" xmlns="http://www.w3.org/2000/svg">
<path fill-rule="evenodd" clip-rule="evenodd" d="M32.8125 17.5C32.8125 21.5611 31.1992 25.4559 28.3276 28.3276C25.4559 31.1992 21.5611 32.8125 17.5 32.8125C13.4389 32.8125 9.54408 31.1992 6.67243 28.3276C3.80078 25.4559 2.1875 21.5611 2.1875 17.5C2.1875 13.4389 3.80078 9.54408 6.67243 6.67243C9.54408 3.80078 13.4389 2.1875 17.5 2.1875C21.5611 2.1875 25.4559 3.80078 28.3276 6.67243C31.1992 9.54408 32.8125 13.4389 32.8125 17.5V17.5ZM0 17.5C0 22.1413 1.84374 26.5925 5.12563 29.8744C8.40752 33.1563 12.8587 35 17.5 35C22.1413 35 26.5925 33.1563 29.8744 29.8744C33.1563 26.5925 35 22.1413 35 17.5C35 12.8587 33.1563 8.40752 29.8744 5.12563C26.5925 1.84375 22.1413 0 17.5 0C12.8587 0 8.40752 1.84375 5.12563 5.12563C1.84374 8.40752 0 12.8587 0 17.5V17.5ZM9.84375 16.4062C9.55367 16.4062 9.27547 16.5215 9.07035 16.7266C8.86523 16.9317 8.75 17.2099 8.75 17.5C8.75 17.7901 8.86523 18.0683 9.07035 18.2734C9.27547 18.4785 9.55367 18.5938 9.84375 18.5938H22.5159L17.8194 23.2881C17.7177 23.3898 17.637 23.5105 17.582 23.6434C17.5269 23.7763 17.4986 23.9187 17.4986 24.0625C17.4986 24.2063 17.5269 24.3487 17.582 24.4816C17.637 24.6145 17.7177 24.7352 17.8194 24.8369C17.9211 24.9386 18.0418 25.0192 18.1747 25.0743C18.3075 25.1293 18.4499 25.1576 18.5938 25.1576C18.7376 25.1576 18.88 25.1293 19.0128 25.0743C19.1457 25.0192 19.2664 24.9386 19.3681 24.8369L25.9306 18.2744C26.0325 18.1728 26.1133 18.0521 26.1684 17.9192C26.2236 17.7863 26.252 17.6439 26.252 17.5C26.252 17.3561 26.2236 17.2137 26.1684 17.0808C26.1133 16.9479 26.0325 16.8272 25.9306 16.7256L19.3681 10.1631C19.1627 9.95775 18.8842 9.84237 18.5938 9.84237C18.3033 9.84237 18.0248 9.95775 17.8194 10.1631C17.614 10.3685 17.4986 10.6471 17.4986 10.9375C17.4986 11.2279 17.614 11.5065 17.8194 11.7119L22.5159 16.4062H9.84375Z" fill="#767C83"/>
</svg>
