<svg width="74" height="55" viewBox="0 0 74 55" fill="none" xmlns="http://www.w3.org/2000/svg">
<path opacity="0.4" d="M16.4 54.6C11.4667 54.6 7.46667 52.8667 4.4 49.4C1.46667 45.8 0 41.1333 0 35.4C0 27.9333 2.2 21 6.6 14.6C11 8.06666 16.4667 3.2 23 0L24.2 2.39999C21.4 4.53333 18.9333 7.26666 16.8 10.6C14.6667 13.9333 13.1333 18.0667 12.2 23L16.4 24C21.0667 25.0667 24.6667 27.0667 27.2 30C29.8667 32.8 31.2 36.2 31.2 40.2C31.2 44.4667 29.7333 47.9333 26.8 50.6C24 53.2667 20.5333 54.6 16.4 54.6ZM58.6 54.6C53.6667 54.6 49.6667 52.8667 46.6 49.4C43.6667 45.8 42.2 41.1333 42.2 35.4C42.2 27.9333 44.4 21 48.8 14.6C53.2 8.06666 58.6667 3.2 65.2 0L66.4 2.39999C63.6 4.53333 61.1333 7.26666 59 10.6C56.8667 13.9333 55.3333 18.0667 54.4 23L58.6 24C63.2667 25.0667 66.8667 27.0667 69.4 30C72.0667 32.8 73.4 36.2 73.4 40.2C73.4 44.4667 71.9333 47.9333 69 50.6C66.2 53.2667 62.7333 54.6 58.6 54.6Z" fill="#CCCCCC"/>
</svg>
