<svg width="24" height="20" viewBox="0 0 24 20" fill="none" xmlns="http://www.w3.org/2000/svg">
<path d="M23.1 5.4856L12.8112 13.1037C12.5914 13.2674 12.3071 13.3579 12.0126 13.3579C11.7181 13.3579 11.4338 13.2674 11.214 13.1037L0.8436 5.5257C0.9204 5.47057 1.0008 5.42045 1.0872 5.37334L10.0308 0.489763C10.6163 0.170187 11.3006 0 12 0C12.6994 0 13.3837 0.170187 13.9692 0.489763L22.9128 5.37334C22.9776 5.40842 23.04 5.44551 23.1 5.4856ZM24 7.66076V17.9952C24 18.5269 23.7471 19.0369 23.2971 19.4128C22.847 19.7888 22.2365 20 21.6 20H2.4C1.76348 20 1.15303 19.7888 0.702944 19.4128C0.252856 19.0369 0 18.5269 0 17.9952V7.66878L9.6168 14.6012C10.2762 15.0921 11.1287 15.3634 12.012 15.3634C12.8953 15.3634 13.7478 15.0921 14.4072 14.6012L24 7.66076Z" fill="black"/>
</svg>
