<svg width="9" height="5" viewBox="0 0 9 5" fill="none" xmlns="http://www.w3.org/2000/svg">
<path d="M7.94866 1.02957C7.99702 1.07794 8.02121 1.13356 8.02121 1.19643C8.02121 1.2593 7.99702 1.31492 7.94866 1.36328L4.56808 4.74386C4.51972 4.79222 4.4641 4.81641 4.40123 4.81641C4.33836 4.81641 4.28274 4.79222 4.23438 4.74386L0.853798 1.36328C0.805435 1.31492 0.78125 1.2593 0.78125 1.19643C0.78125 1.13356 0.805435 1.07794 0.853798 1.02957L1.21652 0.666851C1.26489 0.618488 1.32051 0.594307 1.38338 0.594307C1.44625 0.594307 1.50186 0.618488 1.55022 0.666851L4.40123 3.51786L7.25224 0.666851C7.3006 0.618488 7.35622 0.594307 7.41909 0.594307C7.48196 0.594307 7.53757 0.618488 7.58594 0.666851L7.94866 1.02957Z" fill="#1E4B87"/>
</svg>
