<svg width="14" height="13" viewBox="0 0 14 13" fill="none" xmlns="http://www.w3.org/2000/svg">
<path d="M3.60938 13V4.82422H1.06641V13H3.60938ZM2.35156 3.70312C2.73438 3.70312 3.08984 3.56641 3.39062 3.26562C3.66406 2.99219 3.82812 2.63672 3.82812 2.22656C3.82812 1.84375 3.66406 1.48828 3.39062 1.1875C3.08984 0.914062 2.73438 0.75 2.35156 0.75C1.94141 0.75 1.58594 0.914062 1.3125 1.1875C1.01172 1.48828 0.875 1.84375 0.875 2.22656C0.875 2.63672 1.01172 2.99219 1.3125 3.26562C1.58594 3.56641 1.94141 3.70312 2.35156 3.70312ZM13.125 13V8.51562C13.125 7.25781 12.9336 6.32812 12.5781 5.72656C12.0859 4.98828 11.2656 4.60547 10.0898 4.60547C9.48828 4.60547 8.99609 4.76953 8.55859 5.04297C8.14844 5.28906 7.84766 5.58984 7.68359 5.94531H7.65625V4.82422H5.22266V13H7.73828V8.95312C7.73828 8.32422 7.82031 7.83203 8.01172 7.50391C8.23047 7.06641 8.64062 6.84766 9.24219 6.84766C9.81641 6.84766 10.1992 7.09375 10.418 7.58594C10.5273 7.88672 10.582 8.35156 10.582 9.00781V13H13.125Z" fill="#F8F9FD"/>
</svg>
