<svg width="22" height="22" viewBox="0 0 22 22" fill="none" xmlns="http://www.w3.org/2000/svg">
<path d="M9.11065 12.8902C7.01091 10.7904 6.5368 8.69047 6.42984 7.84915C6.39995 7.61652 6.48 7.38323 6.64642 7.21797L8.34563 5.5194C8.59558 5.26958 8.63994 4.88025 8.45259 4.5806L5.74712 0.379314C5.53985 0.0475086 5.11426 -0.0722434 4.76439 0.102794L0.42116 2.14844C0.138233 2.28776 -0.0281805 2.58839 0.0039427 2.90213C0.231516 5.06423 1.17405 10.3792 6.39684 15.6027C11.6196 20.8263 16.9335 21.7685 19.0965 21.9961C19.4103 22.0282 19.7109 21.8618 19.8502 21.5788L21.8957 17.2353C22.0701 16.8861 21.9511 16.4617 21.6207 16.254L17.4197 13.5491C17.1203 13.3615 16.731 13.4056 16.481 13.6553L14.7825 15.3546C14.6173 15.5211 14.384 15.6011 14.1514 15.5712C13.3101 15.4643 11.2104 14.9901 9.11065 12.8902Z" fill="black"/>
<path d="M17.4485 11.7587C17.0296 11.7587 16.69 11.4191 16.69 11.0001C16.6864 7.85925 14.1413 5.31395 11.0006 5.3104C10.5817 5.3104 10.2421 4.97075 10.2421 4.55177C10.2421 4.13279 10.5817 3.79314 11.0006 3.79314C14.9789 3.79753 18.2027 7.02163 18.2071 11.0001C18.2071 11.4191 17.8675 11.7587 17.4485 11.7587Z" fill="black"/>
<path d="M21.2414 11.7587C20.8225 11.7587 20.4828 11.4191 20.4828 11.0001C20.477 5.7653 16.2351 1.52311 11.0006 1.51726C10.5817 1.51726 10.2421 1.17761 10.2421 0.758629C10.2421 0.33965 10.5817 0 11.0006 0C17.0726 0.00668954 21.9933 4.92769 22 11.0001C22 11.2013 21.9201 11.3943 21.7778 11.5365C21.6356 11.6788 21.4426 11.7587 21.2414 11.7587Z" fill="black"/>
</svg>
