<svg width="14" height="16" viewBox="0 0 14 16" fill="none" xmlns="http://www.w3.org/2000/svg">
<path d="M10.9627 8.60714L6.65505 13.1786C6.59896 13.2321 6.53446 13.2589 6.46154 13.2589C6.38862 13.2589 6.32412 13.2321 6.26803 13.1786L3.84495 10.6071C3.79447 10.5476 3.76923 10.4792 3.76923 10.4018C3.76923 10.3244 3.79447 10.2589 3.84495 10.2054L4.23197 9.79464C4.28245 9.74107 4.34415 9.71429 4.41707 9.71429C4.48998 9.71429 4.55449 9.74107 4.61058 9.79464L6.46154 11.7589L10.1971 7.79464C10.2532 7.74107 10.3177 7.71428 10.3906 7.71428C10.4635 7.71428 10.5252 7.74107 10.5757 7.79464L10.9627 8.20536C11.0132 8.25893 11.0385 8.3244 11.0385 8.40179C11.0385 8.47917 11.0132 8.54762 10.9627 8.60714ZM1.07692 14.8571H12.9231V5.71429H1.07692V14.8571ZM4.30769 4V1.42857C4.30769 1.34524 4.28245 1.27679 4.23197 1.22321C4.18149 1.16964 4.11699 1.14286 4.03846 1.14286H3.5C3.42147 1.14286 3.35697 1.16964 3.30649 1.22321C3.25601 1.27679 3.23077 1.34524 3.23077 1.42857V4C3.23077 4.08333 3.25601 4.15179 3.30649 4.20536C3.35697 4.25893 3.42147 4.28571 3.5 4.28571H4.03846C4.11699 4.28571 4.18149 4.25893 4.23197 4.20536C4.28245 4.15179 4.30769 4.08333 4.30769 4ZM10.7692 4V1.42857C10.7692 1.34524 10.744 1.27679 10.6935 1.22321C10.643 1.16964 10.5785 1.14286 10.5 1.14286H9.96154C9.88301 1.14286 9.81851 1.16964 9.76803 1.22321C9.71755 1.27679 9.69231 1.34524 9.69231 1.42857V4C9.69231 4.08333 9.71755 4.15179 9.76803 4.20536C9.81851 4.25893 9.88301 4.28571 9.96154 4.28571H10.5C10.5785 4.28571 10.643 4.25893 10.6935 4.20536C10.744 4.15179 10.7692 4.08333 10.7692 4ZM14 3.42857V14.8571C14 15.1667 13.8934 15.4345 13.6803 15.6607C13.4671 15.8869 13.2147 16 12.9231 16H1.07692C0.785256 16 0.532853 15.8869 0.319712 15.6607C0.106571 15.4345 0 15.1667 0 14.8571V3.42857C0 3.11905 0.106571 2.85119 0.319712 2.625C0.532853 2.39881 0.785256 2.28571 1.07692 2.28571H2.15385V1.42857C2.15385 1.03571 2.28566 0.699405 2.54928 0.419643C2.8129 0.139881 3.12981 0 3.5 0H4.03846C4.40865 0 4.72556 0.139881 4.98918 0.419643C5.2528 0.699405 5.38462 1.03571 5.38462 1.42857V2.28571H8.61539V1.42857C8.61539 1.03571 8.7472 0.699405 9.01082 0.419643C9.27444 0.139881 9.59135 0 9.96154 0H10.5C10.8702 0 11.1871 0.139881 11.4507 0.419643C11.7143 0.699405 11.8462 1.03571 11.8462 1.42857V2.28571H12.9231C13.2147 2.28571 13.4671 2.39881 13.6803 2.625C13.8934 2.85119 14 3.11905 14 3.42857Z" fill="#FFE800"/>
</svg>
