<svg width="259" height="24" viewBox="0 0 259 24" fill="none" xmlns="http://www.w3.org/2000/svg">
<path d="M17.9145 1.11916V4.55827H11.1121V23.6212H6.9056V4.55827H0.0719604V1.11916H17.9145Z" fill="#00A3D9"/>
<path d="M39.6579 23.6212H35.4201V13.7863H24.8178V23.6212H20.58V1.11916H24.8178V10.7985H35.4201V1.11916H39.6579V23.6212Z" fill="#00A3D9"/>
<path d="M65.909 12.3702C65.909 14.0197 65.6328 15.5499 65.0802 16.9608C64.5277 18.3614 63.751 19.5752 62.7502 20.6022C61.7494 21.6293 60.5453 22.4333 59.1379 23.0143C57.7306 23.5849 56.172 23.8702 54.4623 23.8702C52.7526 23.8702 51.1888 23.5849 49.771 23.0143C48.3636 22.4333 47.1543 21.6293 46.1431 20.6022C45.1423 19.5752 44.3656 18.3614 43.8131 16.9608C43.2605 15.5499 42.9843 14.0197 42.9843 12.3702C42.9843 10.7207 43.2605 9.19562 43.8131 7.79508C44.3656 6.38416 45.1423 5.16517 46.1431 4.13811C47.1543 3.11104 48.3636 2.31222 49.771 1.74163C51.1888 1.16066 52.7526 0.870178 54.4623 0.870178C56.172 0.870178 57.7306 1.16066 59.1379 1.74163C60.5453 2.32259 61.7494 3.12661 62.7502 4.15367C63.751 5.17036 64.5277 6.38416 65.0802 7.79508C65.6328 9.19562 65.909 10.7207 65.909 12.3702ZM61.593 12.3702C61.593 11.1356 61.4262 10.0308 61.0926 9.05556C60.7695 8.07 60.3003 7.23486 59.6853 6.55015C59.0702 5.86544 58.3196 5.34153 57.4334 4.97843C56.5577 4.61533 55.5674 4.43378 54.4623 4.43378C53.3572 4.43378 52.3616 4.61533 51.4755 4.97843C50.5894 5.34153 49.8336 5.86544 49.2081 6.55015C48.593 7.23486 48.1186 8.07 47.785 9.05556C47.4514 10.0308 47.2846 11.1356 47.2846 12.3702C47.2846 13.6047 47.4514 14.7148 47.785 15.7004C48.1186 16.6755 48.593 17.5055 49.2081 18.1902C49.8336 18.8645 50.5894 19.3833 51.4755 19.7464C52.3616 20.1095 53.3572 20.291 54.4623 20.291C55.5674 20.291 56.5577 20.1095 57.4334 19.7464C58.3196 19.3833 59.0702 18.8645 59.6853 18.1902C60.3003 17.5055 60.7695 16.6755 61.0926 15.7004C61.4262 14.7148 61.593 13.6047 61.593 12.3702Z" fill="#00A3D9"/>
<path d="M80.5866 14.2843C80.7639 14.6162 80.9255 14.9638 81.0714 15.3269C81.2278 15.6796 81.379 16.0375 81.5249 16.4006C81.6709 16.0271 81.822 15.6589 81.9784 15.2958C82.1348 14.9326 82.3016 14.5851 82.4788 14.2531L89.1717 1.78831C89.2551 1.63269 89.3385 1.5082 89.4219 1.41483C89.5157 1.32146 89.6148 1.25403 89.719 1.21253C89.8337 1.17103 89.9588 1.1451 90.0943 1.13472C90.2298 1.12435 90.3914 1.11916 90.5791 1.11916H93.7535V23.6212H90.0474V9.08669C90.0474 8.81695 90.0526 8.52128 90.063 8.19968C90.0839 7.87807 90.11 7.55128 90.1412 7.2193L83.3076 19.9798C83.1512 20.2703 82.9479 20.4985 82.6977 20.6645C82.4475 20.8201 82.1556 20.8979 81.822 20.8979H81.2434C80.9098 20.8979 80.6179 20.8201 80.3677 20.6645C80.1175 20.4985 79.9142 20.2703 79.7579 19.9798L72.8304 7.17261C72.8721 7.51497 72.8982 7.85214 72.9086 8.18412C72.9294 8.50572 72.9398 8.80658 72.9398 9.08669V23.6212H69.2337V1.11916H72.4082C72.5958 1.11916 72.7574 1.12435 72.8929 1.13472C73.0285 1.1451 73.1484 1.17103 73.2526 1.21253C73.3673 1.25403 73.4715 1.32146 73.5654 1.41483C73.6592 1.5082 73.7478 1.63269 73.8312 1.78831L80.5866 14.2843Z" fill="#00A3D9"/>
<path d="M118.185 23.6212H114.933C114.568 23.6212 114.266 23.533 114.026 23.3566C113.796 23.1699 113.63 22.9417 113.525 22.6719L111.836 18.0813H102.47L100.781 22.6719C100.697 22.9105 100.53 23.1284 100.28 23.3255C100.04 23.5226 99.7434 23.6212 99.3889 23.6212H96.1207L105.003 1.11916H109.303L118.185 23.6212ZM103.549 15.1246H110.757L108.005 7.63946C107.88 7.30748 107.739 6.91844 107.583 6.47234C107.437 6.01587 107.291 5.52309 107.145 4.99399C106.999 5.52309 106.853 6.01587 106.707 6.47234C106.572 6.92882 106.436 7.32823 106.301 7.67058L103.549 15.1246Z" fill="#00A3D9"/>
<path d="M132.633 5.21186C132.519 5.44009 132.383 5.6009 132.227 5.69426C132.081 5.78763 131.904 5.83432 131.695 5.83432C131.487 5.83432 131.252 5.75651 130.991 5.60089C130.731 5.4349 130.423 5.25335 130.069 5.05624C129.714 4.85913 129.297 4.68276 128.818 4.52715C128.349 4.36116 127.791 4.27816 127.144 4.27816C126.561 4.27816 126.05 4.35078 125.612 4.49602C125.185 4.63089 124.82 4.82282 124.517 5.0718C124.225 5.32079 124.007 5.62164 123.861 5.97437C123.715 6.31673 123.642 6.69539 123.642 7.11037C123.642 7.63946 123.788 8.08037 124.08 8.4331C124.382 8.78583 124.778 9.08669 125.268 9.33567C125.758 9.58466 126.316 9.80771 126.941 10.0048C127.567 10.2019 128.203 10.4146 128.849 10.6428C129.506 10.8607 130.147 11.1201 130.772 11.4209C131.398 11.7114 131.956 12.0849 132.446 12.5414C132.936 12.9875 133.327 13.5373 133.618 14.1909C133.921 14.8445 134.072 15.6381 134.072 16.5718C134.072 17.5885 133.895 18.5429 133.54 19.4351C133.196 20.317 132.685 21.0898 132.008 21.7538C131.341 22.4074 130.522 22.9261 129.553 23.31C128.583 23.6834 127.473 23.8702 126.222 23.8702C125.503 23.8702 124.794 23.7976 124.095 23.6523C123.397 23.5175 122.724 23.3203 122.078 23.061C121.442 22.8016 120.843 22.4904 120.28 22.1273C119.727 21.7642 119.232 21.3596 118.794 20.9135L120.014 18.906C120.128 18.7608 120.264 18.6415 120.42 18.5481C120.587 18.4444 120.77 18.3925 120.968 18.3925C121.228 18.3925 121.51 18.5014 121.812 18.7193C122.114 18.9268 122.469 19.1602 122.875 19.4196C123.292 19.6789 123.777 19.9175 124.33 20.1354C124.893 20.3429 125.565 20.4466 126.347 20.4466C127.546 20.4466 128.474 20.1665 129.13 19.6063C129.787 19.0357 130.116 18.2213 130.116 17.1631C130.116 16.5718 129.964 16.0894 129.662 15.7159C129.37 15.3424 128.979 15.0312 128.489 14.7822C127.999 14.5229 127.442 14.305 126.816 14.1286C126.191 13.9523 125.555 13.7603 124.908 13.5529C124.262 13.3454 123.626 13.0964 123.001 12.8059C122.375 12.5154 121.817 12.1368 121.327 11.6699C120.837 11.2031 120.441 10.6221 120.139 9.92701C119.847 9.22155 119.701 8.35529 119.701 7.32823C119.701 6.50865 119.863 5.70983 120.186 4.93175C120.519 4.15367 120.999 3.46377 121.624 2.86206C122.26 2.26034 123.037 1.77794 123.954 1.41483C124.872 1.05173 125.92 0.870178 127.098 0.870178C128.432 0.870178 129.662 1.07767 130.788 1.49264C131.914 1.90762 132.873 2.48858 133.665 3.23554L132.633 5.21186Z" fill="#00A3D9"/>
<path d="M162.601 12.3622C162.601 14.1001 162.347 15.6631 161.839 17.0512C161.33 18.4394 160.615 19.6209 159.692 20.5958C158.769 21.5707 157.664 22.3178 156.378 22.837C155.092 23.3562 153.666 23.6159 152.1 23.6159H144.072V1.1245H152.1C153.666 1.1245 155.092 1.38412 156.378 1.90335C157.664 2.42259 158.769 3.16965 159.692 4.14454C160.615 5.11943 161.33 6.30096 161.839 7.68911C162.347 9.07727 162.601 10.635 162.601 12.3622ZM160.952 12.3622C160.952 10.7939 160.739 9.39517 160.314 8.16596C159.889 6.93675 159.287 5.89828 158.509 5.05055C157.742 4.20282 156.813 3.55643 155.724 3.11137C154.635 2.66631 153.427 2.44378 152.1 2.44378H145.674V22.2966H152.1C153.427 22.2966 154.635 22.074 155.724 21.629C156.813 21.1839 157.742 20.5375 158.509 19.6898C159.287 18.8421 159.889 17.8036 160.314 16.5744C160.739 15.3452 160.952 13.9411 160.952 12.3622Z" fill="#D3D3D3"/>
<path d="M169.89 23.6159H168.288V1.1245H169.89V23.6159Z" fill="#D3D3D3"/>
<path d="M186.469 22.5509C187.226 22.5509 187.916 22.5138 188.538 22.4396C189.16 22.3549 189.736 22.233 190.265 22.074C190.804 21.9151 191.312 21.7244 191.79 21.5018C192.277 21.2687 192.764 21.0091 193.252 20.723V14.667H189.02C188.906 14.667 188.808 14.6299 188.725 14.5557C188.652 14.4816 188.616 14.3968 188.616 14.3014V13.4113H194.699V21.4065C194.149 21.7985 193.579 22.1482 192.987 22.4555C192.396 22.7628 191.764 23.0224 191.089 23.2344C190.415 23.4357 189.689 23.5894 188.911 23.6953C188.134 23.8119 187.283 23.8702 186.36 23.8702C184.773 23.8702 183.321 23.6 182.004 23.0595C180.697 22.5085 179.572 21.735 178.628 20.7389C177.694 19.7322 176.968 18.5189 176.45 17.0989C175.931 15.679 175.672 14.1001 175.672 12.3622C175.672 10.6244 175.931 9.05078 176.45 7.64143C176.968 6.22148 177.705 5.01346 178.659 4.01738C179.613 3.0107 180.77 2.23714 182.128 1.69672C183.497 1.14569 185.027 0.870178 186.718 0.870178C187.558 0.870178 188.331 0.92846 189.036 1.04502C189.751 1.16159 190.415 1.33643 191.027 1.56956C191.639 1.79209 192.21 2.0729 192.739 2.41199C193.267 2.74048 193.776 3.12196 194.263 3.55643L193.843 4.2558C193.75 4.41475 193.62 4.49423 193.454 4.49423C193.361 4.49423 193.273 4.47304 193.19 4.43065C193.034 4.36707 192.806 4.21872 192.505 3.98559C192.215 3.75246 191.815 3.50874 191.307 3.25442C190.809 3.0001 190.182 2.77227 189.425 2.57094C188.668 2.3696 187.75 2.26894 186.671 2.26894C185.24 2.26894 183.949 2.50206 182.797 2.96831C181.646 3.43456 180.661 4.10215 179.841 4.97108C179.032 5.84 178.405 6.89966 177.959 8.15007C177.523 9.40047 177.306 10.8045 177.306 12.3622C177.306 13.9517 177.529 15.377 177.975 16.638C178.421 17.899 179.043 18.9692 179.841 19.8488C180.65 20.7177 181.615 21.3853 182.735 21.8515C183.866 22.3178 185.11 22.5509 186.469 22.5509Z" fill="#D3D3D3"/>
<path d="M202.463 23.6159H200.861V1.1245H202.463V23.6159Z" fill="#D3D3D3"/>
<path d="M223.958 1.1245V2.50736H216.226V23.6159H214.64V2.50736H206.861V1.1245H223.958Z" fill="#D3D3D3"/>
<path d="M242.56 23.6159H241.331C241.186 23.6159 241.067 23.5788 240.973 23.5046C240.88 23.4198 240.807 23.3139 240.756 23.1867L238.157 16.6539H227.345L224.763 23.1867C224.721 23.3033 224.648 23.4039 224.545 23.4887C224.441 23.5735 224.317 23.6159 224.171 23.6159H222.958L231.966 1.1245H233.552L242.56 23.6159ZM227.827 15.4459H237.691L233.195 4.08096C233.122 3.90082 233.049 3.69948 232.977 3.47695C232.904 3.24383 232.832 3.0001 232.759 2.74578C232.686 3.0001 232.614 3.24383 232.541 3.47695C232.469 3.69948 232.396 3.90612 232.323 4.09685L227.827 15.4459Z" fill="#D3D3D3"/>
<path d="M247.633 22.233H258.072V23.6159H246.046V1.1245H247.633V22.233Z" fill="#D3D3D3"/>
</svg>
