<svg preserveAspectRatio="xMidYMid meet" width="773" viewBox="0 0 773 442" fill="none" xmlns="http://www.w3.org/2000/svg">
<path d="M695.093 92.5207C692.475 92.8973 690.112 94.298 688.522 96.4159C686.932 98.5338 686.244 101.196 686.609 103.821C686.732 104.983 686.399 106.148 685.68 107.069C684.962 107.99 683.914 108.595 682.759 108.757C681.603 108.918 680.43 108.624 679.487 107.935C678.544 107.247 677.905 106.218 677.705 105.066C677.546 103.746 677.125 102.47 676.468 101.314C675.81 100.158 674.929 99.1457 673.875 98.3354C672.822 97.525 671.618 96.9333 670.334 96.5949C669.049 96.2565 667.71 96.1783 666.395 96.3647C665.08 96.5511 663.816 96.9985 662.676 97.6807C661.535 98.3628 660.543 99.266 659.755 100.337C658.968 101.409 658.402 102.627 658.09 103.92C657.779 105.213 657.728 106.556 657.941 107.869C658.022 108.453 657.988 109.048 657.84 109.619C657.692 110.19 657.434 110.727 657.079 111.198C656.362 112.149 655.298 112.777 654.119 112.942C652.941 113.107 651.745 112.797 650.796 112.079C649.846 111.361 649.22 110.294 649.055 109.114L643.57 109.883C643.752 111.182 644.188 112.432 644.853 113.562C645.518 114.692 646.398 115.68 647.444 116.469C648.49 117.258 649.681 117.833 650.948 118.161C652.216 118.489 653.536 118.564 654.832 118.382C656.129 118.199 657.377 117.762 658.505 117.096C659.633 116.43 660.619 115.548 661.407 114.501C662.195 113.453 662.769 112.26 663.096 110.99C663.424 109.72 663.498 108.398 663.316 107.099C663.179 105.931 663.503 104.755 664.22 103.823C664.937 102.891 665.989 102.277 667.152 102.112C668.315 101.947 669.496 102.244 670.443 102.94C671.39 103.636 672.028 104.675 672.22 105.836C672.649 108.407 674.064 110.71 676.163 112.251C678.262 113.793 680.879 114.453 683.457 114.09C686.034 113.727 688.368 112.37 689.961 110.308C691.554 108.246 692.28 105.642 691.985 103.052C691.848 101.883 692.172 100.707 692.889 99.7753C693.606 98.8432 694.658 98.229 695.821 98.0639C696.984 97.8989 698.165 98.1961 699.112 98.892C700.059 99.5879 700.697 100.627 700.889 101.788C701.072 103.087 701.508 104.337 702.172 105.467C702.837 106.597 703.718 107.585 704.763 108.374C705.809 109.163 707 109.738 708.268 110.066C709.536 110.394 710.855 110.469 712.152 110.286C713.448 110.103 714.696 109.667 715.824 109.001C716.952 108.335 717.939 107.453 718.726 106.405C719.514 105.358 720.088 104.165 720.416 102.895C720.743 101.625 720.818 100.303 720.636 99.0042L715.15 99.7734C715.232 100.358 715.198 100.953 715.05 101.524C714.902 102.095 714.644 102.632 714.289 103.103C713.934 103.574 713.49 103.97 712.982 104.27C712.474 104.569 711.913 104.765 711.329 104.847C710.746 104.928 710.152 104.894 709.582 104.746C709.011 104.598 708.476 104.339 708.005 103.983C707.535 103.628 707.139 103.183 706.841 102.675C706.542 102.166 706.346 101.603 706.265 101.019C705.888 98.4175 704.505 96.0687 702.416 94.4789C700.326 92.8892 697.696 92.1859 695.093 92.5207Z" fill="#890CFF"/>
<path d="M243.978 228.4C243.684 246.501 236.299 263.761 223.416 276.457C210.533 289.153 193.185 296.269 175.113 296.269C157.04 296.269 139.692 289.153 126.809 276.457C113.926 263.761 106.541 246.501 106.247 228.4H81.2164C81.2489 251.161 89.5098 273.141 104.471 290.272C119.432 307.404 140.081 318.528 162.597 321.587V341.257H187.628V321.587C210.144 318.528 230.793 307.404 245.754 290.272C260.715 273.141 268.976 251.161 269.009 228.4H243.978Z" fill="#FFD14D"/>
<path d="M247.087 76.3849V139.096H209.532V76.3849H184.501V189.261H209.532V164.169H247.087V189.261H272.135V76.3849H247.087Z" fill="#80CAFF"/>
<path d="M168.85 76.3849H81.2164V101.477H112.518V189.261H137.549V101.477H168.85V76.3849Z" fill="#FF5D3E"/>
<path d="M335.671 76.3849C324.033 76.3849 312.872 81.016 304.643 89.2594C296.413 97.5028 291.79 108.683 291.79 120.341V189.316H316.839V164.224H354.449V189.316H379.479V120.286C379.465 108.65 374.845 97.4952 366.633 89.2658C358.421 81.0364 347.287 76.4043 335.671 76.3849ZM354.449 120.341V139.151H316.894V120.286C317.046 115.397 319.092 110.759 322.599 107.354C326.105 103.949 330.797 102.045 335.68 102.045C340.564 102.045 345.256 103.949 348.762 107.354C352.269 110.759 354.315 115.397 354.467 120.286L354.449 120.341Z" fill="#FFD14D"/>
<path d="M554.253 76.3848V157.392C554.253 159.186 553.543 160.907 552.279 162.178C551.014 163.448 549.298 164.164 547.507 164.169C545.92 164.183 544.382 163.623 543.174 162.594L451.974 83.9855C447.351 80.039 441.697 77.5014 435.68 76.6729C429.662 75.8444 423.534 76.7598 418.02 79.3107C412.505 81.8616 407.836 85.9413 404.564 91.0671C401.291 96.1929 399.553 102.15 399.555 108.235V189.26H424.658V108.235C424.663 106.441 425.378 104.722 426.646 103.455C427.914 102.188 429.632 101.476 431.423 101.476C433.007 101.461 434.544 102.013 435.757 103.033L526.956 181.66C531.582 185.599 537.238 188.131 543.254 188.954C549.27 189.778 555.396 188.86 560.908 186.308C566.42 183.756 571.088 179.677 574.36 174.554C577.633 169.43 579.373 163.475 579.375 157.392V76.3848H554.253Z" fill="#890CFF"/>
<path d="M300.073 284.829C300.082 276.509 303.388 268.534 309.264 262.655C315.14 256.775 323.106 253.473 331.411 253.473H429.595V228.4H331.411C316.471 228.4 302.142 234.345 291.578 244.927C281.014 255.51 275.079 269.863 275.079 284.829C275.079 299.794 281.014 314.147 291.578 324.73C302.142 335.312 316.471 341.257 331.411 341.257H429.595V316.184H331.411C323.106 316.184 315.14 312.882 309.264 307.002C303.388 301.123 300.082 293.148 300.073 284.829ZM429.595 228.4V253.473C437.896 253.473 445.858 256.777 451.728 262.657C457.599 268.537 460.896 276.513 460.896 284.829C460.896 293.144 457.599 301.12 451.728 307C445.858 312.88 437.896 316.184 429.595 316.184V341.257C436.992 341.257 444.318 339.798 451.152 336.962C457.987 334.126 464.197 329.97 469.428 324.73C474.659 319.49 478.808 313.269 481.639 306.423C484.47 299.577 485.927 292.239 485.927 284.829C485.927 277.418 484.47 270.08 481.639 263.234C478.808 256.388 474.659 250.167 469.428 244.927C464.197 239.688 457.987 235.531 451.152 232.695C444.318 229.859 436.992 228.4 429.595 228.4Z" fill="#FF5D3E"/>
<path d="M663.042 228.4V249.316C663.042 267.609 655.787 285.153 642.874 298.088C629.961 311.023 612.447 318.29 594.185 318.29C575.923 318.29 558.409 311.023 545.496 298.088C532.583 285.153 525.329 267.609 525.329 249.316V228.4H500.298V249.316C500.124 261.778 502.425 274.15 507.066 285.714C511.707 297.278 518.595 307.803 527.332 316.677C536.068 325.551 546.478 332.598 557.956 337.408C569.434 342.217 581.752 344.694 594.194 344.694C606.636 344.694 618.954 342.217 630.433 337.408C641.911 332.598 652.321 325.551 661.057 316.677C669.793 307.803 676.682 297.278 681.323 285.714C685.964 274.15 688.264 261.778 688.09 249.316V228.4H663.042Z" fill="#80CAFF"/>
<path d="M688.072 182.979C688.075 177.135 686.911 171.351 684.646 165.965C682.382 160.58 679.065 155.704 674.89 151.623C679.067 147.548 682.386 142.675 684.65 137.292C686.914 131.91 688.078 126.127 688.072 120.286V76.33H663.042V120.286C663.032 125.272 661.051 130.05 657.531 133.576C654.012 137.101 649.241 139.086 644.264 139.096H625.487V76.3849H600.438V189.261H625.487V164.169H644.264C649.241 164.179 654.012 166.163 657.531 169.689C661.051 173.214 663.032 177.993 663.042 182.979V189.261H688.09L688.072 182.979Z" fill="#FF8FC5"/>
<path d="M322.58 297.539C325.165 297.539 327.261 295.44 327.261 292.851C327.261 290.261 325.165 288.162 322.58 288.162C319.995 288.162 317.899 290.261 317.899 292.851C317.899 295.44 319.995 297.539 322.58 297.539Z" fill="white"/>
<path d="M765.54 393.822C765.54 394.75 765.265 395.657 764.75 396.428C764.235 397.2 763.503 397.801 762.647 398.155C761.79 398.509 760.848 398.601 759.94 398.419C759.031 398.236 758.197 397.788 757.543 397.13C756.889 396.473 756.445 395.636 756.267 394.725C756.088 393.814 756.183 392.871 756.54 392.015C756.898 391.158 757.5 390.427 758.272 389.914C759.045 389.401 759.951 389.129 760.878 389.133C762.116 389.138 763.302 389.634 764.176 390.513C765.05 391.391 765.54 392.581 765.54 393.822Z" fill="white"/>
<path d="M700.662 330.949L685.497 346.14L700.662 361.331L715.827 346.14L700.662 330.949Z" fill="white"/>
<path d="M95.5337 367.151L86.432 376.268L95.5337 385.386L104.635 376.268L95.5337 367.151Z" fill="white"/>
<path d="M418.88 261.532C418.698 252.814 425.627 246.477 431.679 241.019L434.476 238.418C435.446 237.503 436.561 236.587 437.786 235.47C443.509 230.47 450.584 224.261 450.475 216.44C450.255 206.33 442.613 204.169 442.54 204.151L444.368 195.177C450.127 196.33 459.379 203.07 459.653 216.257C459.891 228.363 450.219 236.788 443.819 242.374C442.704 243.345 441.68 244.206 440.784 245.085C439.888 245.964 438.846 246.917 437.877 247.777C428.15 256.697 424.53 260.708 432.703 270.781L425.609 276.569C420.837 270.836 418.972 265.891 418.88 261.532Z" fill="white"/>
<path d="M476.365 381.569C476.721 380.989 476.916 380.324 476.931 379.643C476.945 378.962 476.778 378.29 476.446 377.695C476.114 377.101 475.63 376.606 475.044 376.261C474.457 375.916 473.79 375.735 473.11 375.735C472.43 375.735 471.763 375.916 471.176 376.261C470.59 376.606 470.106 377.101 469.774 377.695C469.443 378.29 469.275 378.962 469.29 379.643C469.304 380.324 469.499 380.989 469.856 381.569C469.279 381.219 468.62 381.03 467.946 381.02C467.272 381.009 466.607 381.179 466.02 381.511C465.433 381.842 464.944 382.324 464.604 382.907C464.264 383.49 464.085 384.154 464.085 384.829C464.085 385.504 464.264 386.167 464.604 386.75C464.944 387.333 465.433 387.815 466.02 388.147C466.607 388.479 467.272 388.648 467.946 388.638C468.62 388.628 469.279 388.438 469.856 388.089C469.503 388.666 469.311 389.327 469.299 390.004C469.286 390.681 469.454 391.348 469.784 391.939C470.115 392.529 470.596 393.02 471.179 393.362C471.762 393.704 472.425 393.884 473.101 393.884C473.776 393.884 474.44 393.704 475.023 393.362C475.606 393.02 476.087 392.529 476.418 391.939C476.748 391.348 476.916 390.681 476.903 390.004C476.891 389.327 476.698 388.666 476.346 388.089C477.144 388.564 478.087 388.732 478.999 388.561C479.912 388.391 480.731 387.894 481.304 387.162C481.877 386.431 482.165 385.516 482.114 384.588C482.063 383.66 481.677 382.782 481.027 382.118C480.423 381.517 479.636 381.136 478.79 381.037C477.945 380.937 477.091 381.124 476.365 381.569Z" fill="white"/>
<path d="M83.1545 177.887C82.5556 175.436 81.2958 173.196 79.5128 171.413C77.7297 169.63 75.4918 168.373 73.0436 167.777C75.4923 167.176 77.7297 165.914 79.5124 164.129C81.2951 162.343 82.5548 160.102 83.1545 157.649C83.7542 160.102 85.0139 162.343 86.7966 164.129C88.5793 165.914 90.8167 167.176 93.2654 167.777C90.8172 168.373 88.5794 169.63 86.7963 171.413C85.0132 173.196 83.7534 175.436 83.1545 177.887Z" fill="white"/>
<path d="M657.392 75.7989C656.792 73.3492 655.535 71.1105 653.756 69.3253C651.977 67.5401 649.744 66.2762 647.3 65.6707C649.747 65.0708 651.982 63.8088 653.762 62.0227C655.542 60.2366 656.798 57.9949 657.392 55.5425C657.992 57.9954 659.252 60.2366 661.034 62.0224C662.817 63.8081 665.054 65.07 667.503 65.6707C665.056 66.2752 662.821 67.5383 661.039 69.3234C659.257 71.1086 657.996 73.3478 657.392 75.7989Z" fill="white"/>
<path d="M315.047 406.898C310.803 405.702 307.206 402.87 305.043 399.021C302.88 395.173 302.329 390.622 303.51 386.367C304.046 384.453 303.801 382.405 302.829 380.672C301.857 378.939 300.237 377.664 298.327 377.127C296.416 376.591 294.371 376.836 292.641 377.81C290.911 378.784 289.638 380.406 289.103 382.32C287.832 386.482 284.987 389.982 281.175 392.07C277.362 394.159 272.885 394.671 268.701 393.496C264.517 392.321 260.958 389.554 258.784 385.785C256.611 382.016 255.995 377.545 257.07 373.327C257.518 371.439 257.22 369.451 256.238 367.778C255.255 366.106 253.664 364.88 251.799 364.356C249.934 363.833 247.938 364.053 246.232 364.971C244.525 365.889 243.239 367.433 242.644 369.279L233.849 366.807C235.04 362.554 237.868 358.949 241.712 356.785C245.555 354.621 250.1 354.076 254.345 355.268C258.591 356.461 262.189 359.294 264.35 363.144C266.51 366.994 267.054 371.547 265.864 375.799C265.415 377.687 265.713 379.676 266.696 381.348C267.678 383.02 269.269 384.247 271.134 384.77C273 385.293 274.995 385.073 276.702 384.155C278.409 383.238 279.695 381.694 280.29 379.847C280.838 377.695 281.811 375.673 283.15 373.903C284.489 372.132 286.168 370.647 288.089 369.536C290.009 368.425 292.132 367.709 294.332 367.432C296.532 367.154 298.766 367.32 300.901 367.919C303.037 368.519 305.031 369.54 306.767 370.923C308.503 372.305 309.945 374.022 311.009 375.971C312.073 377.92 312.738 380.062 312.963 382.272C313.189 384.482 312.971 386.715 312.323 388.84C312.059 389.787 311.984 390.778 312.102 391.755C312.22 392.731 312.529 393.675 313.011 394.532C313.493 395.39 314.139 396.143 314.912 396.75C315.685 397.357 316.57 397.806 317.516 398.071C318.462 398.335 319.45 398.41 320.425 398.292C321.401 398.174 322.343 397.865 323.199 397.382C324.054 396.899 324.807 396.251 325.413 395.477C326.019 394.703 326.466 393.817 326.731 392.869C327.921 388.604 330.754 384.988 334.606 382.815C338.459 380.643 343.015 380.092 347.272 381.285C351.53 382.477 355.14 385.315 357.309 389.174C359.478 393.033 360.027 397.597 358.837 401.862L350.024 399.389C350.289 398.442 350.366 397.451 350.249 396.474C350.132 395.496 349.824 394.552 349.343 393.694C348.861 392.836 348.216 392.081 347.444 391.473C346.671 390.865 345.787 390.415 344.841 390.149C343.895 389.884 342.906 389.807 341.93 389.924C340.955 390.041 340.012 390.35 339.155 390.832C338.299 391.314 337.545 391.96 336.938 392.734C336.331 393.508 335.882 394.394 335.617 395.342C335.024 397.453 334.021 399.428 332.667 401.151C331.312 402.875 329.632 404.315 327.722 405.388C325.812 406.461 323.709 407.147 321.534 407.406C319.36 407.665 317.155 407.493 315.047 406.898Z" fill="white"/>
<path d="M573.963 250.763L577.09 256.532L582.666 253.107L582.483 259.664L589.047 259.481L585.61 265.085L591.369 268.199L585.61 271.33L589.047 276.917L582.483 276.752L582.666 283.308L577.09 279.865L573.963 285.635L570.837 279.865L565.26 283.308L565.443 276.752L558.879 276.917L562.316 271.33L556.557 268.199L562.316 265.085L558.879 259.481L565.443 259.664L565.26 253.107L570.837 256.532L573.963 250.763Z" fill="white"/>
<path d="M483.166 56.4217C484.776 54.1903 486.718 52.2198 488.925 50.5792C490.643 49.1872 492.647 48.1942 494.794 47.6716C496.941 47.1491 499.176 47.11 501.34 47.5572C503.901 48.2187 506.361 49.2229 508.654 50.5426C511.872 52.2642 512 52.1909 513.188 51.3484C514.376 50.5059 514.303 45.1579 514.34 42.5755C514.431 36.5499 514.541 29.755 519.825 26.8795C520.962 26.2212 522.246 25.8595 523.559 25.8275C524.872 25.7955 526.172 26.0943 527.34 26.6964C531.801 29.0407 532.953 35.1213 533.428 39.5169C534.196 46.4034 536.774 51.0737 540.742 52.6488C542.384 53.2211 544.15 53.3376 545.852 52.9862C547.555 52.6347 549.131 51.8283 550.414 50.6525C554.546 47.2092 556.228 41.3118 554.93 34.8832C551.419 17.7403 532.569 8.56446 532.368 8.47289L536.189 0.139542C537.14 0.579103 559.354 11.2934 563.779 32.9967C565.79 42.777 562.938 51.9894 556.173 57.6305C553.627 59.8684 550.522 61.3724 547.189 61.982C543.856 62.5916 540.421 62.284 537.249 61.092C533.062 59.407 525.84 54.4986 524.286 40.4693C524.17 39.2841 523.968 38.1088 523.683 36.9528C523.487 38.8635 523.39 40.783 523.39 42.7037C523.39 48.6744 523.189 55.5243 518.344 58.8393C512.438 62.9968 507.703 60.4693 504.247 58.6195C502.661 57.6836 500.958 56.963 499.183 56.4766C498.301 56.3745 497.408 56.4552 496.559 56.7135C495.709 56.9719 494.922 57.4025 494.246 57.9785C489.334 62.1242 486.263 68.0519 485.708 74.462L476.566 73.7111C477.181 67.4599 479.46 61.4888 483.166 56.4217Z" fill="white"/>
<path d="M272.19 93.473L274.018 94.9749C274.543 95.4017 275.176 95.6743 275.847 95.7624L278.205 96.0188C279.038 96.1065 279.816 96.4782 280.409 97.0716C281.001 97.6651 281.372 98.4443 281.46 99.2789L281.716 101.66C281.792 102.365 282.072 103.034 282.52 103.583L284.001 105.414C284.53 106.067 284.818 106.882 284.818 107.722C284.818 108.562 284.53 109.377 284.001 110.03L282.52 111.861C282.082 112.381 281.802 113.017 281.716 113.693L281.46 116.055C281.376 116.893 281.007 117.677 280.414 118.274C279.821 118.871 279.041 119.245 278.205 119.334L275.847 119.572C275.172 119.659 274.538 119.938 274.018 120.378L272.19 121.88C271.538 122.409 270.725 122.698 269.886 122.698C269.047 122.698 268.234 122.409 267.582 121.88L265.754 120.378C265.2 119.925 264.527 119.645 263.816 119.572L261.457 119.334C260.621 119.245 259.841 118.871 259.249 118.274C258.656 117.677 258.287 116.893 258.203 116.055L257.947 113.693C257.859 113.021 257.587 112.387 257.161 111.861L255.661 110.03C255.133 109.377 254.844 108.562 254.844 107.722C254.844 106.882 255.133 106.067 255.661 105.414L257.161 103.583C257.603 103.031 257.876 102.363 257.947 101.66L258.203 99.2789C258.29 98.4443 258.661 97.6651 259.254 97.0716C259.846 96.4782 260.624 96.1065 261.457 96.0188L263.816 95.7624C264.523 95.6875 265.195 95.4145 265.754 94.9749L267.582 93.473C268.234 92.9436 269.047 92.6547 269.886 92.6547C270.725 92.6547 271.538 92.9436 272.19 93.473Z" fill="white"/>
<path d="M22.0684 143.546C24.6534 143.546 26.749 141.447 26.749 138.858C26.749 136.268 24.6534 134.169 22.0684 134.169C19.4833 134.169 17.3877 136.268 17.3877 138.858C17.3877 141.447 19.4833 143.546 22.0684 143.546Z" fill="white"/>
<path d="M458.885 158.839C458.889 157.911 458.617 157.003 458.105 156.229C457.593 155.456 456.864 154.852 456.009 154.495C455.154 154.137 454.212 154.041 453.303 154.22C452.394 154.399 451.558 154.844 450.901 155.499C450.245 156.154 449.797 156.99 449.615 157.9C449.433 158.81 449.525 159.753 449.879 160.611C450.232 161.469 450.832 162.202 451.602 162.718C452.372 163.234 453.278 163.51 454.205 163.51C455.443 163.51 456.631 163.018 457.508 162.143C458.385 161.268 458.88 160.08 458.885 158.839Z" fill="#890CFF"/>
<path d="M141.746 234.355L132.645 225.237L123.543 234.355L132.645 243.472L141.746 234.355Z" fill="#890CFF"/>
<path d="M356.55 29.0579L347.448 19.9406L338.347 29.0579L347.448 38.1752L356.55 29.0579Z" fill="#890CFF"/>
<path d="M6.27132 290.635L7.38663 288.565L9.39784 289.792L9.34299 287.429L11.7016 287.503L10.4583 285.488L12.5426 284.353L10.4583 283.235L11.7016 281.221L9.34299 281.276L9.39784 278.913L7.38663 280.158L6.27132 278.07L5.15602 280.158L3.1448 278.913L3.19966 281.276L0.841051 281.221L2.08435 283.235L0 284.353L2.08435 285.488L0.841051 287.503L3.19966 287.429L3.1448 289.792L5.15602 288.565L6.27132 290.635Z" fill="#FF5D3E"/>
<path d="M497.903 356.514L499.036 354.426L501.048 355.671L500.975 353.308L503.333 353.363L502.108 351.349L504.174 350.232L502.108 349.096L503.333 347.1L500.975 347.155L501.048 344.792L499.036 346.037L497.903 343.949L496.788 346.037L494.776 344.792L494.831 347.155L492.473 347.1L493.716 349.096L491.632 350.232L493.716 351.349L492.473 353.363L494.831 353.308L494.776 355.671L496.788 354.426L497.903 356.514Z" fill="#890CFF"/>
<path d="M103.961 56.9525C106.558 61.4764 112.079 62.5936 116.76 63.5643L119.009 64.0222C119.777 64.187 120.673 64.3518 121.623 64.5167C126.103 65.3042 131.679 66.3482 134.02 70.3775C134.923 71.6753 135.383 73.2313 135.33 74.8127C135.278 76.3941 134.715 77.9158 133.727 79.1504L137.384 83.2163C139.295 81.1322 140.464 78.4733 140.709 75.654C140.954 72.8347 140.26 70.0135 138.737 67.6302C135.08 61.3298 127.547 59.9928 122.538 59.1137C121.66 58.9489 120.855 58.8207 120.142 58.6558L117.82 58.1797C110.05 56.6046 106.96 55.6522 108.039 47.9415L102.553 47.1723C101.908 50.4981 102.404 53.9449 103.961 56.9525Z" fill="#890CFF"/>
<path d="M621.647 411.038C623.13 410.569 624.491 409.778 625.632 408.72C626.773 407.662 627.666 406.365 628.248 404.92C628.76 403.64 629.015 402.271 628.997 400.892C628.98 399.512 628.69 398.15 628.144 396.884C627.599 395.617 626.808 394.471 625.819 393.512C624.829 392.553 623.66 391.799 622.379 391.294C616.822 389.543 611.088 388.419 605.283 387.942C602.522 387.613 599.908 387.283 597.714 386.898C596.39 386.68 595.087 386.35 593.819 385.909C596.818 384.627 604.607 383.272 612.359 382.796L612.03 377.301C587.621 378.785 587.475 384.023 587.438 385.745C587.31 390.58 593.673 391.734 596.726 392.283C599.085 392.704 601.773 393.034 604.625 393.382C609.972 393.816 615.256 394.829 620.386 396.404C620.989 396.632 621.539 396.98 622.004 397.427C622.469 397.874 622.839 398.411 623.092 399.005C623.346 399.617 623.476 400.274 623.476 400.937C623.476 401.6 623.346 402.257 623.092 402.869C622.855 403.481 622.5 404.04 622.048 404.514C621.595 404.988 621.053 405.368 620.453 405.632C619.854 405.896 619.208 406.038 618.553 406.051C617.898 406.064 617.247 405.948 616.637 405.708L614.608 410.818C616.857 411.71 619.347 411.788 621.647 411.038Z" fill="#FF5D3E"/>
<path d="M416.851 12.3006C417.203 12.8781 417.395 13.5391 417.408 14.2157C417.421 14.8923 417.253 15.5601 416.922 16.1503C416.592 16.7405 416.111 17.2318 415.528 17.5738C414.945 17.9158 414.281 18.0961 413.606 18.0961C412.93 18.0961 412.267 17.9158 411.684 17.5738C411.101 17.2318 410.619 16.7405 410.289 16.1503C409.958 15.5601 409.791 14.8923 409.803 14.2157C409.816 13.5391 410.008 12.8781 410.36 12.3006C409.783 12.6499 409.124 12.8394 408.45 12.8496C407.776 12.8598 407.112 12.6904 406.525 12.3587C405.937 12.027 405.449 11.5449 405.109 10.9619C404.769 10.3788 404.59 9.71573 404.59 9.0405C404.59 8.36528 404.769 7.70219 405.109 7.11913C405.449 6.53608 405.937 6.05402 406.525 5.72232C407.112 5.39062 407.776 5.2212 408.45 5.23141C409.124 5.24162 409.783 5.43109 410.36 5.78042C410.012 5.20259 409.822 4.54229 409.812 3.86714C409.802 3.19199 409.971 2.52626 410.302 1.93812C410.633 1.34999 411.115 0.860578 411.697 0.520023C412.279 0.179467 412.941 0 413.615 0C414.289 0 414.951 0.179467 415.533 0.520023C416.115 0.860578 416.596 1.34999 416.927 1.93812C417.258 2.52626 417.428 3.19199 417.417 3.86714C417.407 4.54229 417.218 5.20259 416.869 5.78042C417.446 5.43109 418.105 5.24162 418.779 5.23141C419.453 5.2212 420.118 5.39062 420.705 5.72232C421.292 6.05402 421.781 6.53608 422.121 7.11913C422.461 7.70219 422.64 8.36528 422.64 9.0405C422.64 9.71573 422.461 10.3788 422.121 10.9619C421.781 11.5449 421.292 12.027 420.705 12.3587C420.118 12.6904 419.453 12.8598 418.779 12.8496C418.105 12.8394 417.446 12.6499 416.869 12.3006H416.851Z" fill="#FF5D3E"/>
<path d="M722.025 212.173C721.431 214.628 720.173 216.873 718.389 218.659C716.606 220.446 714.365 221.706 711.914 222.301C714.365 222.896 716.606 224.156 718.389 225.943C720.173 227.729 721.431 229.974 722.025 232.429C722.619 229.974 723.877 227.729 725.66 225.943C727.444 224.156 729.684 222.896 732.136 222.301C729.684 221.706 727.444 220.446 725.66 218.659C723.877 216.873 722.619 214.628 722.025 212.173Z" fill="#FF5D3E"/>
<path d="M621.044 234.554C620.444 237.007 619.185 239.248 617.402 241.034C615.619 242.819 613.382 244.081 610.933 244.682C613.384 245.277 615.625 246.537 617.408 248.324C619.192 250.11 620.45 252.355 621.044 254.81C621.644 252.357 622.903 250.116 624.686 248.33C626.469 246.545 628.706 245.283 631.155 244.682C628.71 244.074 626.476 242.81 624.695 241.025C622.913 239.24 621.651 237.003 621.044 234.554Z" fill="#890CFF"/>
<path d="M221.891 420.836C221.292 423.289 220.032 425.53 218.249 427.316C216.467 429.102 214.229 430.364 211.781 430.964C214.232 431.56 216.472 432.82 218.256 434.606C220.04 436.393 221.297 438.637 221.891 441.093C222.485 438.637 223.743 436.393 225.527 434.606C227.31 432.82 229.551 431.56 232.002 430.964C229.554 430.364 227.316 429.102 225.533 427.316C223.751 425.53 222.491 423.289 221.891 420.836Z" fill="#890CFF"/>
<path d="M210.446 267.356L211.561 266.459C211.888 266.186 212.29 266.02 212.713 265.982L214.139 265.836C214.638 265.783 215.104 265.559 215.457 265.202C215.81 264.845 216.029 264.377 216.077 263.876L216.242 262.448C216.279 262.023 216.445 261.621 216.717 261.294L217.613 260.177C217.932 259.787 218.107 259.298 218.107 258.794C218.107 258.289 217.932 257.801 217.613 257.411L216.717 256.312C216.444 255.978 216.279 255.57 216.242 255.14L216.077 253.73C216.033 253.228 215.815 252.758 215.461 252.4C215.107 252.042 214.639 251.819 214.139 251.77L212.713 251.623C212.294 251.57 211.896 251.406 211.561 251.147L210.446 250.231C210.052 249.921 209.566 249.752 209.065 249.752C208.565 249.752 208.078 249.921 207.685 250.231L206.57 251.147C206.235 251.406 205.837 251.57 205.418 251.623L204.01 251.77C203.508 251.819 203.038 252.041 202.681 252.398C202.324 252.756 202.102 253.226 202.054 253.73L201.907 255.14C201.856 255.569 201.685 255.975 201.414 256.312L200.518 257.411C200.208 257.805 200.039 258.292 200.039 258.794C200.039 259.295 200.208 259.782 200.518 260.177L201.414 261.294C201.684 261.624 201.855 262.024 201.907 262.448L202.054 263.876C202.105 264.378 202.328 264.847 202.684 265.204C203.041 265.561 203.509 265.784 204.01 265.836L205.418 265.982C205.841 266.02 206.243 266.186 206.57 266.459L207.685 267.356C208.074 267.676 208.562 267.851 209.065 267.851C209.569 267.851 210.057 267.676 210.446 267.356Z" fill="#FF5D3E"/>
<path d="M526.499 130.671L528.364 127.209L531.728 129.26L531.618 125.323L535.549 125.433L533.483 122.081L536.939 120.195L533.483 118.326L535.549 114.956L531.618 115.066L531.728 111.129L528.364 113.198L526.499 109.737L524.616 113.198L521.27 111.129L521.379 115.066L517.448 114.956L519.514 118.326L516.059 120.195L519.514 122.081L517.448 125.433L521.379 125.323L521.27 129.26L524.616 127.209L526.499 130.671Z" fill="#FF5D3E"/>
<path d="M766.729 53.4913L767.862 55.5609L769.874 54.3337L769.8 56.6964L772.159 56.6231L770.916 58.6378L773 59.7733L770.916 60.8905L772.159 62.9052L769.8 62.8502L769.874 65.1946L767.862 63.9675L766.729 66.0371L765.613 63.9675L763.602 65.1946L763.657 62.8502L761.298 62.9052L762.542 60.8905L760.457 59.7733L762.542 58.6378L761.298 56.6231L763.657 56.6964L763.602 54.3337L765.613 55.5609L766.729 53.4913Z" fill="#890CFF"/>
<path d="M98.275 331.495C96.7548 332.132 95.1448 332.527 93.5029 332.667C92.1854 332.839 90.8462 332.716 89.5816 332.308C88.3171 331.899 87.1586 331.215 86.1894 330.305C85.091 329.164 84.1557 327.875 83.4103 326.477C82.295 324.645 82.2036 324.645 81.3442 324.645C80.4849 324.645 78.8211 327.466 77.9983 328.766C76.0602 331.825 73.8479 335.286 70.246 335.048C69.4495 335.036 68.6692 334.821 67.9784 334.424C67.2875 334.027 66.7089 333.46 66.2967 332.777C64.7609 330.177 66.0773 326.715 67.1926 324.334C69.021 320.671 69.021 317.393 67.5949 315.341C66.9438 314.544 66.0923 313.936 65.1281 313.578C64.1638 313.221 63.1219 313.128 62.1097 313.308C60.3989 313.637 58.8115 314.432 57.5215 315.604C56.2315 316.777 55.2886 318.283 54.7962 319.957C51.1395 329.829 57.9593 340.451 58.0142 340.561L53.4981 343.565C53.1507 343.034 45.1607 330.561 49.7134 318.07C50.535 315.467 52.0535 313.14 54.1038 311.341C56.1541 309.542 58.6576 308.341 61.3418 307.869C63.3475 307.532 65.4066 307.745 67.302 308.483C69.1974 309.221 70.8588 310.458 72.1109 312.063C73.7016 314.242 75.7677 319.041 72.2572 326.715C71.9386 327.359 71.6696 328.026 71.4527 328.711C72.1522 327.792 72.8052 326.839 73.4091 325.854C75.3289 322.832 77.5046 319.407 81.0517 319.206C85.3849 318.931 86.9939 321.715 88.1824 323.748C88.6915 324.712 89.3246 325.605 90.0656 326.404C90.4838 326.736 90.9663 326.977 91.4824 327.112C91.9985 327.248 92.5371 327.275 93.0641 327.191C96.8752 326.615 100.305 324.554 102.608 321.459L107.033 324.7C104.782 327.718 101.755 330.066 98.275 331.495Z" fill="#FF5D3E"/>
</svg>
